<?xml version="1.0" encoding="UTF-8"?>
<svg version="1.1" xmlns="http://www.w3.org/2000/svg" width="512" height="512">
<path d="M0 0 C1.25555695 -0.00570007 2.51111389 -0.01140015 3.80471802 -0.01727295 C6.45904139 -0.02669515 9.11325256 -0.03360539 11.76757812 -0.03710938 C15.77229939 -0.04361779 19.77664894 -0.0777883 23.78125 -0.109375 C37.50039153 -0.16590713 50.53001639 0.25782528 63.9453125 3.203125 C65.37026045 3.48806553 66.79572555 3.7704313 68.22167969 4.05029297 C85.66837538 7.57637597 102.61443703 14.23248625 117.97021484 23.19189453 C122.01695598 25.55552754 122.01695598 25.55552754 126.55859375 26.19921875 C129.66021477 24.90476153 132.54062107 23.31732001 135.4453125 21.640625 C144.86364089 16.42889709 154.79576496 12.73057969 164.9453125 9.203125 C165.67476074 8.94901855 166.40420898 8.69491211 167.15576172 8.43310547 C188.11251741 1.30889771 209.57784977 -0.46608298 231.59008789 -0.31835938 C235.37646632 -0.29691095 239.16094396 -0.31829738 242.94726562 -0.34375 C273.06749096 -0.37857686 308.13756295 4.08300964 334.9453125 19.203125 C336.19779752 21.70809504 336.05905656 23.41165774 336.04296875 26.2109375 C336.03974609 27.19707031 336.03652344 28.18320312 336.03320312 29.19921875 C336.02482422 30.23175781 336.01644531 31.26429687 336.0078125 32.328125 C336.00330078 33.36839844 335.99878906 34.40867188 335.99414062 35.48046875 C335.98233202 38.05474462 335.96586325 40.62890646 335.9453125 43.203125 C336.6465625 43.37199219 337.3478125 43.54085937 338.0703125 43.71484375 C357.1334595 48.391272 357.1334595 48.391272 361.9453125 53.203125 C362.04311937 55.19954453 362.06902505 57.19949036 362.06836033 59.19830418 C362.07035138 60.51005196 362.07234243 61.82179975 362.07439381 63.17329746 C362.07154021 64.64812968 362.0685946 66.12296171 362.06556702 67.59779358 C362.06600258 69.14958175 362.06687722 70.70136985 362.06815618 72.25315756 C362.07040403 76.53789926 362.06637593 80.82261621 362.06137812 85.10735476 C362.05707793 89.72019555 362.05851974 94.33303484 362.0592804 98.94587708 C362.05980591 106.94476212 362.05665629 114.94363904 362.05104256 122.94252205 C362.0429312 134.50770431 362.04031271 146.07288262 362.03905457 157.63806742 C362.03686347 176.39974574 362.03020183 195.16141973 362.02075195 213.9230957 C362.01157932 232.15323871 362.00449776 250.38338054 362.00024414 268.61352539 C361.99985006 270.29779681 361.99985006 270.29779681 361.99944801 272.01609392 C361.99814301 277.64883407 361.9968793 283.28157423 361.99563611 288.91431439 C361.9852617 335.67725426 361.96764183 382.44018941 361.9453125 429.203125 C355.93378695 429.33122863 351.88656336 428.71621528 346.3828125 426.140625 C329.04874676 418.56219088 310.49278559 413.7609526 291.9453125 410.203125 C291.09195312 410.03796387 290.23859375 409.87280273 289.359375 409.70263672 C261.94588526 404.66676199 232.12923425 405.37361582 204.9453125 411.203125 C203.58237061 411.49195557 203.58237061 411.49195557 202.19189453 411.78662109 C180.2764424 416.56577872 147.22789412 424.92054338 130.9453125 441.203125 C125.95106965 442.53261094 121.65881332 441.77096897 117.203125 439.2890625 C115.07852761 438.01953605 112.98149588 436.71019883 110.88183594 435.39990234 C89.97165215 422.42943568 65.9148821 415.0906593 41.9453125 410.203125 C41.16945801 410.03796387 40.39360352 409.87280273 39.59423828 409.70263672 C14.22931373 404.49833329 -14.72034253 405.33469735 -40.0546875 410.203125 C-41.60760498 410.49316406 -41.60760498 410.49316406 -43.19189453 410.7890625 C-61.75826469 414.34485025 -81.6935635 418.68328041 -98.578125 427.45703125 C-102.41556582 429.38437512 -104.81777113 429.6354634 -109.0546875 429.203125 C-110.0546875 428.203125 -110.0546875 428.203125 -110.178886 425.67441553 C-110.17850628 424.53563426 -110.17812656 423.39685299 -110.17773533 422.22356319 C-110.17972638 420.9152988 -110.18171743 419.60703442 -110.18376881 418.25912565 C-110.18091521 416.78822369 -110.1779696 415.3173219 -110.17494202 413.84642029 C-110.17537758 412.29875692 -110.17625222 410.75109362 -110.17753118 409.20343071 C-110.17977902 404.93009056 -110.17575094 400.65677522 -110.17075312 396.38343823 C-110.16645292 391.78286749 -110.16789474 387.18229826 -110.1686554 382.58172607 C-110.16918091 374.60412194 -110.1660313 366.62652596 -110.16041756 358.64892387 C-110.1523062 347.1145107 -110.14968771 335.58010149 -110.14842957 324.04568578 C-110.14623847 305.33392174 -110.13957683 286.62216206 -110.13012695 267.91040039 C-110.12095432 249.72875999 -110.11387276 231.54712076 -110.10961914 213.36547852 C-110.10935642 212.2456179 -110.10909369 211.12575728 -110.10882301 209.97196149 C-110.10751801 204.35420541 -110.1062543 198.73644933 -110.10501111 193.11869323 C-110.09463671 146.48016748 -110.07701684 99.84164646 -110.0546875 53.203125 C-108.18270637 52.24922754 -106.30857995 51.29953955 -104.43359375 50.3515625 C-103.39017822 49.82224121 -102.3467627 49.29291992 -101.27172852 48.74755859 C-89.72272417 43.203125 -89.72272417 43.203125 -84.0546875 43.203125 C-84.07039795 42.55239014 -84.0861084 41.90165527 -84.10229492 41.23120117 C-84.16463399 38.28443076 -84.20367434 35.33779902 -84.2421875 32.390625 C-84.26732422 31.36646484 -84.29246094 30.34230469 -84.31835938 29.28710938 C-84.32802734 28.30419922 -84.33769531 27.32128906 -84.34765625 26.30859375 C-84.3633667 25.40262451 -84.37907715 24.49665527 -84.39526367 23.56323242 C-83.98596414 20.72688939 -83.2908461 19.93055085 -81.0546875 18.203125 C-62.96812992 8.41444376 -41.21176125 4.12852853 -21.0546875 1.203125 C-19.33161377 0.93943115 -19.33161377 0.93943115 -17.57373047 0.67041016 C-11.73466762 -0.04392071 -5.87469558 0.02093128 0 0 Z " fill="#FEFDFD" transform="translate(128.0546875,27.796875)"/>
<path d="M0 0 C1.25555695 -0.00570007 2.51111389 -0.01140015 3.80471802 -0.01727295 C6.45904139 -0.02669515 9.11325256 -0.03360539 11.76757812 -0.03710938 C15.77229939 -0.04361779 19.77664894 -0.0777883 23.78125 -0.109375 C37.50039153 -0.16590713 50.53001639 0.25782528 63.9453125 3.203125 C65.37026045 3.48806553 66.79572555 3.7704313 68.22167969 4.05029297 C85.66837538 7.57637597 102.61443703 14.23248625 117.97021484 23.19189453 C122.01695598 25.55552754 122.01695598 25.55552754 126.55859375 26.19921875 C129.66021477 24.90476153 132.54062107 23.31732001 135.4453125 21.640625 C144.86364089 16.42889709 154.79576496 12.73057969 164.9453125 9.203125 C165.67476074 8.94901855 166.40420898 8.69491211 167.15576172 8.43310547 C188.11251741 1.30889771 209.57784977 -0.46608298 231.59008789 -0.31835938 C235.37646632 -0.29691095 239.16094396 -0.31829738 242.94726562 -0.34375 C273.06749096 -0.37857686 308.13756295 4.08300964 334.9453125 19.203125 C336.19779752 21.70809504 336.05905656 23.41165774 336.04296875 26.2109375 C336.03974609 27.19707031 336.03652344 28.18320312 336.03320312 29.19921875 C336.02482422 30.23175781 336.01644531 31.26429687 336.0078125 32.328125 C336.00330078 33.36839844 335.99878906 34.40867188 335.99414062 35.48046875 C335.98233202 38.05474462 335.96586325 40.62890646 335.9453125 43.203125 C336.6465625 43.37199219 337.3478125 43.54085937 338.0703125 43.71484375 C357.1334595 48.391272 357.1334595 48.391272 361.9453125 53.203125 C362.04311937 55.19954453 362.06902505 57.19949036 362.06836033 59.19830418 C362.07035138 60.51005196 362.07234243 61.82179975 362.07439381 63.17329746 C362.07154021 64.64812968 362.0685946 66.12296171 362.06556702 67.59779358 C362.06600258 69.14958175 362.06687722 70.70136985 362.06815618 72.25315756 C362.07040403 76.53789926 362.06637593 80.82261621 362.06137812 85.10735476 C362.05707793 89.72019555 362.05851974 94.33303484 362.0592804 98.94587708 C362.05980591 106.94476212 362.05665629 114.94363904 362.05104256 122.94252205 C362.0429312 134.50770431 362.04031271 146.07288262 362.03905457 157.63806742 C362.03686347 176.39974574 362.03020183 195.16141973 362.02075195 213.9230957 C362.01157932 232.15323871 362.00449776 250.38338054 362.00024414 268.61352539 C361.99985006 270.29779681 361.99985006 270.29779681 361.99944801 272.01609392 C361.99814301 277.64883407 361.9968793 283.28157423 361.99563611 288.91431439 C361.9852617 335.67725426 361.96764183 382.44018941 361.9453125 429.203125 C355.93378695 429.33122863 351.88656336 428.71621528 346.3828125 426.140625 C329.04874676 418.56219088 310.49278559 413.7609526 291.9453125 410.203125 C291.09195312 410.03796387 290.23859375 409.87280273 289.359375 409.70263672 C261.94588526 404.66676199 232.12923425 405.37361582 204.9453125 411.203125 C203.58237061 411.49195557 203.58237061 411.49195557 202.19189453 411.78662109 C180.2764424 416.56577872 147.22789412 424.92054338 130.9453125 441.203125 C125.95106965 442.53261094 121.65881332 441.77096897 117.203125 439.2890625 C115.07852761 438.01953605 112.98149588 436.71019883 110.88183594 435.39990234 C89.97165215 422.42943568 65.9148821 415.0906593 41.9453125 410.203125 C41.16945801 410.03796387 40.39360352 409.87280273 39.59423828 409.70263672 C14.22931373 404.49833329 -14.72034253 405.33469735 -40.0546875 410.203125 C-41.60760498 410.49316406 -41.60760498 410.49316406 -43.19189453 410.7890625 C-61.75826469 414.34485025 -81.6935635 418.68328041 -98.578125 427.45703125 C-102.41556582 429.38437512 -104.81777113 429.6354634 -109.0546875 429.203125 C-110.0546875 428.203125 -110.0546875 428.203125 -110.178886 425.67441553 C-110.17850628 424.53563426 -110.17812656 423.39685299 -110.17773533 422.22356319 C-110.17972638 420.9152988 -110.18171743 419.60703442 -110.18376881 418.25912565 C-110.18091521 416.78822369 -110.1779696 415.3173219 -110.17494202 413.84642029 C-110.17537758 412.29875692 -110.17625222 410.75109362 -110.17753118 409.20343071 C-110.17977902 404.93009056 -110.17575094 400.65677522 -110.17075312 396.38343823 C-110.16645292 391.78286749 -110.16789474 387.18229826 -110.1686554 382.58172607 C-110.16918091 374.60412194 -110.1660313 366.62652596 -110.16041756 358.64892387 C-110.1523062 347.1145107 -110.14968771 335.58010149 -110.14842957 324.04568578 C-110.14623847 305.33392174 -110.13957683 286.62216206 -110.13012695 267.91040039 C-110.12095432 249.72875999 -110.11387276 231.54712076 -110.10961914 213.36547852 C-110.10935642 212.2456179 -110.10909369 211.12575728 -110.10882301 209.97196149 C-110.10751801 204.35420541 -110.1062543 198.73644933 -110.10501111 193.11869323 C-110.09463671 146.48016748 -110.07701684 99.84164646 -110.0546875 53.203125 C-108.18270637 52.24922754 -106.30857995 51.29953955 -104.43359375 50.3515625 C-103.39017822 49.82224121 -102.3467627 49.29291992 -101.27172852 48.74755859 C-89.72272417 43.203125 -89.72272417 43.203125 -84.0546875 43.203125 C-84.07039795 42.55239014 -84.0861084 41.90165527 -84.10229492 41.23120117 C-84.16463399 38.28443076 -84.20367434 35.33779902 -84.2421875 32.390625 C-84.26732422 31.36646484 -84.29246094 30.34230469 -84.31835938 29.28710938 C-84.32802734 28.30419922 -84.33769531 27.32128906 -84.34765625 26.30859375 C-84.3633667 25.40262451 -84.37907715 24.49665527 -84.39526367 23.56323242 C-83.98596414 20.72688939 -83.2908461 19.93055085 -81.0546875 18.203125 C-62.96812992 8.41444376 -41.21176125 4.12852853 -21.0546875 1.203125 C-19.33161377 0.93943115 -19.33161377 0.93943115 -17.57373047 0.67041016 C-11.73466762 -0.04392071 -5.87469558 0.02093128 0 0 Z M-33.0546875 21.953125 C-34.06571533 22.16855957 -35.07674316 22.38399414 -36.1184082 22.60595703 C-46.49652953 25.00122644 -55.82762521 28.6236532 -66.0546875 32.203125 C-66.0546875 140.443125 -66.0546875 248.683125 -66.0546875 360.203125 C-56.11453726 359.52629601 -56.11453726 359.52629601 -46.2421875 358.265625 C5.23025234 349.96764379 60.6902989 355.72265748 108.28125 377.1875 C118.11970718 381.54148833 126.5961326 384.26437105 137.21191406 380.37207031 C140.68196914 378.93632979 144.10319312 377.40231112 147.52490234 375.85546875 C180.14988428 361.24021452 215.72616202 357.01532241 251.09912109 357.01782227 C254.54146842 357.01564326 257.98349064 356.99745634 261.42578125 356.97851562 C274.45648506 356.944598 287.01145449 357.59905645 299.9453125 359.203125 C305.8853125 359.863125 311.8253125 360.523125 317.9453125 361.203125 C317.9453125 252.633125 317.9453125 144.063125 317.9453125 32.203125 C261.03155124 13.23187125 203.06522914 8.948638 148.0703125 36.390625 C144.09862698 38.39767413 140.39220052 40.53921692 136.8203125 43.203125 C131.37042307 46.68101496 125.10124355 46.32889252 118.9453125 45.203125 C115.32894617 43.57868331 112.04683757 41.61617393 108.7109375 39.49609375 C67.34632876 13.4275422 13.28556176 11.89586418 -33.0546875 21.953125 Z " fill="#A769F6" transform="translate(128.0546875,27.796875)"/>
<path d="M0 0 C0.33 104.61 0.66 209.22 1 317 C7.69529285 317.0920366 7.69529285 317.0920366 13.85546875 316.01171875 C14.71446777 315.8012793 15.5734668 315.59083984 16.45849609 315.37402344 C17.35906738 315.1474707 18.25963867 314.92091797 19.1875 314.6875 C78.69397756 300.48629169 147.20660987 306.08133138 200.64941406 337.30786133 C204.65617191 339.58715782 207.40749797 340.77908517 212 340 C214.91721704 338.7339079 217.6251356 337.15408379 220.375 335.5625 C245.27048733 321.86520897 273.01051846 314.82369966 301 311 C301.85851562 310.88140625 302.71703125 310.7628125 303.6015625 310.640625 C336.58229212 306.29833458 373.24102638 307.73964107 405.51171875 316.11328125 C409.15592454 317.03963591 412.25538613 317.22926207 416 317 C417.68061804 315.31938196 417.13227624 313.24827814 417.1386652 310.94186306 C417.14413964 309.83911901 417.14961409 308.73637496 417.15525442 307.60021442 C417.15623253 306.3735876 417.15721064 305.14696078 417.15821838 303.88316345 C417.16562535 301.946278 417.16562535 301.946278 417.17318195 299.97026354 C417.18681664 296.36962878 417.19419675 292.76900351 417.20060861 289.16834962 C417.20858926 285.29170066 417.22229501 281.41507159 417.23532104 277.53843689 C417.25711707 270.81641701 417.27525007 264.09439515 417.29092598 257.37235832 C417.31359623 247.65330838 417.34174294 237.93428045 417.37124526 228.21524913 C417.41895615 212.44844076 417.46221082 196.68162341 417.50268555 180.91479492 C417.54202271 165.59480083 417.58344464 150.27481473 417.62768555 134.95483398 C417.63177196 133.53939217 417.63177196 133.53939217 417.63594092 132.09535556 C417.6496201 127.36165958 417.66334043 122.62796372 417.67708123 117.89426792 C417.79110092 78.59619521 417.89789808 39.29810537 418 0 C421.91606575 0.53400897 424.39338934 1.19669467 428 3 C428 114.21 428 225.42 428 340 C419.03786192 338.87973274 419.03786192 338.87973274 415.390625 337.765625 C414.56844482 337.52360352 413.74626465 337.28158203 412.89916992 337.03222656 C412.02494385 336.7740918 411.15071777 336.51595703 410.25 336.25 C346.7983195 318.36407315 275.74447646 321.82561685 217.5 354.125 C216.81188232 354.5276709 216.12376465 354.9303418 215.41479492 355.34521484 C212.69444725 356.88302523 210.6182966 358.00284492 207.453125 357.98828125 C204.17852128 356.66905396 201.25167515 354.89709352 198.25 353.0625 C145.59252703 322.32431648 77.21015922 319.50028086 19 333 C10.71610216 335.19837422 2.52853057 337.70601585 -5.62524414 340.3449707 C-8 341 -8 341 -11 341 C-11 229.46 -11 117.92 -11 3 C-4 0 -4 0 0 0 Z " fill="#FDFCFE" transform="translate(45,91)"/>
<path d="M0 0 C4.82488131 1.87124674 8.33211134 4.35313001 11.0546875 8.796875 C11.98579257 17.20292641 10.22882127 25.68010891 8.0546875 33.796875 C9.13105469 33.5803125 10.20742188 33.36375 11.31640625 33.140625 C34.65641431 28.59878559 34.65641431 28.59878559 41.0078125 32.70703125 C49.83439911 40.46181806 49.83439911 40.46181806 50.3671875 46.109375 C50.0546875 49.796875 50.0546875 49.796875 48.6796875 52.32421875 C46.45049902 57.08803741 45.69737258 61.89795711 44.7421875 67.046875 C42.90959709 76.42138976 40.50386486 85.32432797 37.2890625 94.3125 C36.39740461 96.82945836 35.66776121 99.21290384 35.0546875 101.796875 C35.93205566 101.74563477 36.80942383 101.69439453 37.71337891 101.64160156 C40.9892932 101.46054482 44.26500905 101.29884395 47.54248047 101.14990234 C48.95693305 101.08171649 50.3710437 101.00598058 51.78466797 100.92236328 C53.82474894 100.80303508 55.86454529 100.71151371 57.90625 100.625 C59.13166504 100.5621582 60.35708008 100.49931641 61.61962891 100.43457031 C67.70711382 101.0766334 72.28210911 105.13663111 76.0546875 109.796875 C76.4296875 113.046875 76.4296875 113.046875 76.0546875 115.796875 C75.7246875 116.126875 75.3946875 116.456875 75.0546875 116.796875 C68.09118948 116.75045168 61.40437882 115.69935274 54.609375 114.28125 C43.36537707 112.16262672 32.08518394 112.24881606 20.6796875 112.296875 C19.56273499 112.29863739 18.44578247 112.30039978 17.29498291 112.30221558 C-13.33619731 112.40952765 -41.52774947 116.72292412 -70.6796875 126.35546875 C-87.41439938 131.87641263 -87.41439938 131.87641263 -94.515625 128.6171875 C-100.55098971 124.96569725 -100.55098971 124.96569725 -101.81640625 121.21484375 C-101.85894531 120.41691406 -101.90148437 119.61898437 -101.9453125 118.796875 C-100.9553125 117.806875 -100.9553125 117.806875 -99.9453125 116.796875 C-98.20773346 116.97945774 -96.4789871 117.24674944 -94.7578125 117.546875 C-84.89498213 118.5553217 -75.66644321 115.16958156 -66.30444336 112.36352539 C-63.9453125 111.796875 -63.9453125 111.796875 -59.9453125 111.796875 C-60.30882812 110.94351563 -60.67234375 110.09015625 -61.046875 109.2109375 C-65.88253182 97.36447107 -68.62462462 85.1757314 -71.31103516 72.69238281 C-71.83782684 70.28755242 -72.39597222 67.89708692 -72.98828125 65.5078125 C-74.9104913 57.51214067 -75.28228927 50.00912378 -74.9453125 41.796875 C-72.9653125 41.301875 -72.9653125 41.301875 -70.9453125 40.796875 C-68.6353125 45.416875 -66.3253125 50.036875 -63.9453125 54.796875 C-62.2128125 53.435625 -62.2128125 53.435625 -60.4453125 52.046875 C-53.61767526 46.95914532 -47.29990154 44.33660596 -38.9453125 42.796875 C-38.94636388 29.73150428 -38.94636388 29.73150428 -43.08984375 17.56640625 C-44.34618009 14.96768314 -44.23484184 12.6197861 -43.9453125 9.796875 C-42.6253125 9.466875 -41.3053125 9.136875 -39.9453125 8.796875 C-39.4296875 9.663125 -38.9140625 10.529375 -38.3828125 11.421875 C-36.19925569 14.73648283 -33.5215095 17.04024698 -30.43359375 19.5 C-28.9453125 20.796875 -28.9453125 20.796875 -27.9453125 22.796875 C-27.87336381 25.68057833 -27.85239542 28.53927164 -27.8828125 31.421875 C-27.88732422 32.22367188 -27.89183594 33.02546875 -27.89648438 33.8515625 C-27.90828082 35.83336506 -27.92621645 37.81512933 -27.9453125 39.796875 C-27.12123901 39.61511719 -27.12123901 39.61511719 -26.28051758 39.4296875 C-23.77409268 38.88004451 -21.26600424 38.33839561 -18.7578125 37.796875 C-17.89349609 37.60609375 -17.02917969 37.4153125 -16.13867188 37.21875 C-15.29755859 37.03828125 -14.45644531 36.8578125 -13.58984375 36.671875 C-12.82003174 36.50429687 -12.05021973 36.33671875 -11.25708008 36.1640625 C-8.78471003 35.77136585 -6.44455441 35.73502215 -3.9453125 35.796875 C-3.80008316 31.88059837 -3.71126493 27.96501347 -3.6328125 24.046875 C-3.59091797 22.93570313 -3.54902344 21.82453125 -3.50585938 20.6796875 C-3.20460309 14.2535542 -3.20460309 14.2535542 -6.46484375 9.03125 C-7.28339844 8.62390625 -8.10195313 8.2165625 -8.9453125 7.796875 C-8.59311907 5.19064358 -8.18057781 3.18898385 -6.8203125 0.921875 C-4.45367958 -0.49810475 -2.68567157 -0.57632437 0 0 Z " fill="#FCBC05" transform="translate(364.9453125,58.203125)"/>
<path d="M0 0 C5.39796951 3.14444826 10.79473054 7.57114877 14 13 C14.51576243 17.27346011 13.86134208 20.82854167 13 25 C16.6477851 24.57790109 20.29268738 24.13448434 23.9375 23.6875 C24.95908203 23.56955078 25.98066406 23.45160156 27.03320312 23.33007812 C37.2002193 22.45812714 37.2002193 22.45812714 46 18 C53.18587394 17.18650484 59.9083373 19.05260257 66 23 C66.91015625 25.61328125 66.91015625 25.61328125 67 28 C65.28564361 29.71435639 62.97443251 29.25100208 60.62890625 29.359375 C33.61761978 30.20763704 33.61761978 30.20763704 10 42 C9.92794489 43.68608966 9.91613932 45.37500659 9.9375 47.0625 C9.94652344 47.98160156 9.95554687 48.90070313 9.96484375 49.84765625 C9.97644531 50.55792969 9.98804688 51.26820312 10 52 C10.64066406 51.71125 11.28132813 51.4225 11.94140625 51.125 C17.10995408 48.90660689 21.27803621 47.22973564 27 48 C30.27191292 49.35815253 32.49895506 50.49895506 35 53 C35.09375 55.37890625 35.09375 55.37890625 34 58 C31.47891103 59.55767283 29.18726858 60.75427043 26.5 61.9375 C25.03860491 62.63041545 23.57895453 63.32702284 22.12109375 64.02734375 C21.4132373 64.36362793 20.70538086 64.69991211 19.97607422 65.04638672 C17.44106011 66.26973304 14.98199461 67.56085167 12.5625 69 C11.54349609 69.5878125 11.54349609 69.5878125 10.50390625 70.1875 C8.73225802 72.32268125 8.68966247 73.39781933 8.40600586 76.11328125 C8.27202393 77.39589844 8.13804199 78.67851562 8 80 C9.7171521 79.89171875 9.7171521 79.89171875 11.46899414 79.78125 C15.73707334 79.52319868 20.00633864 79.32019639 24.27807617 79.13330078 C26.12259904 79.04499657 27.96648135 78.94198964 29.80932617 78.82373047 C45.1438843 77.85470897 45.1438843 77.85470897 49.73999023 80.69067383 C51.52942054 82.72345368 52.78029136 84.59241899 54 87 C54.9590625 88.3303125 54.9590625 88.3303125 55.9375 89.6875 C57.19197251 92.41782253 57.29315855 94.0188031 57 97 C55.75 98.8515625 55.75 98.8515625 54 100.625 C51.03978824 103.78216133 48.48810151 107.0198711 46 110.5625 C39.91272256 119.0144506 33.99823025 125.50037923 23.5 127.75 C22.675 127.8325 21.85 127.915 21 128 C21.495 128.556875 21.99 129.11375 22.5 129.6875 C24.31567651 132.48666796 24.65420677 133.72896614 24 137 C19.90152643 141.94643362 14.01688254 142.19915399 8 143 C8.2165625 144.38445312 8.2165625 144.38445312 8.4375 145.796875 C12.44212053 173.9404582 12.44212053 173.9404582 8.421875 182.26953125 C6.37016531 184.75585883 4.83490046 186.46403386 2 188 C-3.02677443 188.46215936 -5.57310527 187.29857996 -10 185 C-11.55574042 184.53903987 -13.11920026 184.10373121 -14.6875 183.6875 C-23.27359824 181.19727211 -30.85033091 177.45814144 -36 170 C-34.89140625 170.16113281 -33.7828125 170.32226562 -32.640625 170.48828125 C-27.67281437 171.106522 -22.75111199 171.18378998 -17.75 171.1875 C-16.42355469 171.20586914 -16.42355469 171.20586914 -15.0703125 171.22460938 C-13.79027344 171.22750977 -13.79027344 171.22750977 -12.484375 171.23046875 C-11.71834961 171.23457764 -10.95232422 171.23868652 -10.16308594 171.24291992 C-7.58378098 171.07905798 -7.58378098 171.07905798 -4 169 C-3.67 161.08 -3.34 153.16 -3 145 C-9.50597364 145.94063124 -9.50597364 145.94063124 -16.01147461 146.88452148 C-18.67290824 147.26701379 -21.33630676 147.63360677 -24 148 C-24.86117432 148.12906738 -25.72234863 148.25813477 -26.60961914 148.39111328 C-28.7296171 148.68136 -30.86543131 148.85083231 -33 149 C-36.28738665 146.43423481 -36.86066463 144.58949578 -37.8125 140.5625 C-36.89145952 136.52409175 -36.53462582 136.27699622 -33.25 134.125 C-32.43015625 133.6403125 -31.6103125 133.155625 -30.765625 132.65625 C-22.11988289 127.47857393 -14.37254913 120.83264023 -7 114 C-12.31318444 114.61894426 -17.15375126 115.84039327 -22.25 117.4375 C-28.77813299 119.42791472 -35.2332478 121.02079396 -42 122 C-41.67021073 119.12889344 -41.45873558 117.46318933 -39.390625 115.375 C-28.70427742 108.51077674 -17.37816638 105.28263038 -5 103 C-4.67 99.04 -4.34 95.08 -4 91 C-17.10646356 94.64753137 -17.10646356 94.64753137 -28.453125 101.80859375 C-30.78652736 103.60578496 -33.11947155 103.85597358 -36 104 C-37.26237731 101.47524538 -37.09856404 99.68799534 -37.0625 96.875 C-37.05347656 95.96492188 -37.04445312 95.05484375 -37.03515625 94.1171875 C-37.02355469 93.41851562 -37.01195312 92.71984375 -37 92 C-35.79730469 91.35998047 -35.79730469 91.35998047 -34.5703125 90.70703125 C-27.1885263 86.64788578 -20.11022592 82.24044428 -13.1875 77.4375 C-12.3929541 76.90809814 -11.5984082 76.37869629 -10.77978516 75.83325195 C-6.7365705 73.09247598 -6.7365705 73.09247598 -4.27197266 69.03955078 C-3.91241274 66.91388139 -3.91241274 66.91388139 -4 64 C-13.65432562 67.3100545 -22.35259933 71.0273655 -31.01171875 76.4609375 C-34.04808388 78.02476477 -35.65030019 78.44662664 -39 78 C-40.57027317 76.42972683 -40.16974386 74.85730053 -40.1875 72.6875 C-40.20167969 71.90761719 -40.21585938 71.12773438 -40.23046875 70.32421875 C-39.83841333 66.37043948 -38.70739095 64.59737865 -35.6640625 62.02734375 C-28.7481729 57.27155848 -21.66088337 52.99789372 -14.3125 48.9375 C-12.98436279 48.20358032 -12.98436279 48.20358032 -11.62939453 47.45483398 C-5.26103126 44 -5.26103126 44 -3 44 C-3 42.02 -3 40.04 -3 38 C-14.81084255 40.9737631 -26.54997874 44.08923968 -38.1875 47.6875 C-40.98624072 48.54541601 -43.78528711 49.40232568 -46.58447266 50.25878906 C-48.65545444 50.89427529 -50.72441926 51.53632813 -52.79296875 52.1796875 C-62.64748739 55.00240133 -68.90669806 52.79330767 -77.93359375 48.4140625 C-80.24811529 46.83021222 -80.99447271 45.58250177 -82 43 C-81.505 42.505 -81.505 42.505 -81 42 C-79.34611481 42.07261488 -77.69234386 42.14951834 -76.03955078 42.24377441 C-61.95420853 42.87608615 -48.59547844 39.22063207 -34.99401855 35.97369385 C-30.9823552 35.02069356 -26.96420453 34.09547636 -22.947052 33.16594696 C-19.83236287 32.44470835 -16.71912786 31.71814917 -13.60791016 30.98205566 C-11.953479 30.591651 -11.953479 30.591651 -10.265625 30.19335938 C-9.29399414 29.96241577 -8.32236328 29.73147217 -7.32128906 29.49353027 C-5 29 -5 29 -3 29 C-2.47728435 19.62249669 -2.47728435 19.62249669 -6.0703125 11.328125 C-8.50780426 9.23283824 -8.50780426 9.23283824 -11.06640625 7.515625 C-11.70449219 7.01546875 -12.34257812 6.5153125 -13 6 C-13 5.01 -13 4.02 -13 3 C-8.50395723 -0.94774488 -5.72444082 -1.7765506 0 0 Z " fill="#FCBD06" transform="translate(155,55)"/>
<path d="M0 0 C1.25555695 -0.00570007 2.51111389 -0.01140015 3.80471802 -0.01727295 C6.45904139 -0.02669515 9.11325256 -0.03360539 11.76757812 -0.03710938 C15.77229939 -0.04361779 19.77664894 -0.0777883 23.78125 -0.109375 C37.50039153 -0.16590713 50.53001639 0.25782528 63.9453125 3.203125 C65.37026045 3.48806553 66.79572555 3.7704313 68.22167969 4.05029297 C85.66837538 7.57637597 102.61443703 14.23248625 117.97021484 23.19189453 C122.01695598 25.55552754 122.01695598 25.55552754 126.55859375 26.19921875 C129.66021477 24.90476153 132.54062107 23.31732001 135.4453125 21.640625 C144.86364089 16.42889709 154.79576496 12.73057969 164.9453125 9.203125 C165.67476074 8.94901855 166.40420898 8.69491211 167.15576172 8.43310547 C188.11251741 1.30889771 209.57784977 -0.46608298 231.59008789 -0.31835938 C235.37646632 -0.29691095 239.16094396 -0.31829738 242.94726562 -0.34375 C273.06749096 -0.37857686 308.13756295 4.08300964 334.9453125 19.203125 C336.19779752 21.70809504 336.05905656 23.41165774 336.04296875 26.2109375 C336.03974609 27.19707031 336.03652344 28.18320312 336.03320312 29.19921875 C336.02482422 30.23175781 336.01644531 31.26429687 336.0078125 32.328125 C336.00330078 33.36839844 335.99878906 34.40867188 335.99414062 35.48046875 C335.98233202 38.05474462 335.96586325 40.62890646 335.9453125 43.203125 C336.6465625 43.37199219 337.3478125 43.54085937 338.0703125 43.71484375 C357.1334595 48.391272 357.1334595 48.391272 361.9453125 53.203125 C362.04311937 55.19954453 362.06902505 57.19949036 362.06836033 59.19830418 C362.07035138 60.51005196 362.07234243 61.82179975 362.07439381 63.17329746 C362.07154021 64.64812968 362.0685946 66.12296171 362.06556702 67.59779358 C362.06600258 69.14958175 362.06687722 70.70136985 362.06815618 72.25315756 C362.07040403 76.53789926 362.06637593 80.82261621 362.06137812 85.10735476 C362.05707793 89.72019555 362.05851974 94.33303484 362.0592804 98.94587708 C362.05980591 106.94476212 362.05665629 114.94363904 362.05104256 122.94252205 C362.0429312 134.50770431 362.04031271 146.07288262 362.03905457 157.63806742 C362.03686347 176.39974574 362.03020183 195.16141973 362.02075195 213.9230957 C362.01157932 232.15323871 362.00449776 250.38338054 362.00024414 268.61352539 C361.99985006 270.29779681 361.99985006 270.29779681 361.99944801 272.01609392 C361.99814301 277.64883407 361.9968793 283.28157423 361.99563611 288.91431439 C361.9852617 335.67725426 361.96764183 382.44018941 361.9453125 429.203125 C355.93378695 429.33122863 351.88656336 428.71621528 346.3828125 426.140625 C329.04874676 418.56219088 310.49278559 413.7609526 291.9453125 410.203125 C291.09195312 410.03796387 290.23859375 409.87280273 289.359375 409.70263672 C261.94588526 404.66676199 232.12923425 405.37361582 204.9453125 411.203125 C203.58237061 411.49195557 203.58237061 411.49195557 202.19189453 411.78662109 C180.2764424 416.56577872 147.22789412 424.92054338 130.9453125 441.203125 C125.95106965 442.53261094 121.65881332 441.77096897 117.203125 439.2890625 C115.07852761 438.01953605 112.98149588 436.71019883 110.88183594 435.39990234 C89.97165215 422.42943568 65.9148821 415.0906593 41.9453125 410.203125 C41.16945801 410.03796387 40.39360352 409.87280273 39.59423828 409.70263672 C14.22931373 404.49833329 -14.72034253 405.33469735 -40.0546875 410.203125 C-41.60760498 410.49316406 -41.60760498 410.49316406 -43.19189453 410.7890625 C-61.75826469 414.34485025 -81.6935635 418.68328041 -98.578125 427.45703125 C-102.41556582 429.38437512 -104.81777113 429.6354634 -109.0546875 429.203125 C-110.0546875 428.203125 -110.0546875 428.203125 -110.178886 425.67441553 C-110.17850628 424.53563426 -110.17812656 423.39685299 -110.17773533 422.22356319 C-110.17972638 420.9152988 -110.18171743 419.60703442 -110.18376881 418.25912565 C-110.18091521 416.78822369 -110.1779696 415.3173219 -110.17494202 413.84642029 C-110.17537758 412.29875692 -110.17625222 410.75109362 -110.17753118 409.20343071 C-110.17977902 404.93009056 -110.17575094 400.65677522 -110.17075312 396.38343823 C-110.16645292 391.78286749 -110.16789474 387.18229826 -110.1686554 382.58172607 C-110.16918091 374.60412194 -110.1660313 366.62652596 -110.16041756 358.64892387 C-110.1523062 347.1145107 -110.14968771 335.58010149 -110.14842957 324.04568578 C-110.14623847 305.33392174 -110.13957683 286.62216206 -110.13012695 267.91040039 C-110.12095432 249.72875999 -110.11387276 231.54712076 -110.10961914 213.36547852 C-110.10935642 212.2456179 -110.10909369 211.12575728 -110.10882301 209.97196149 C-110.10751801 204.35420541 -110.1062543 198.73644933 -110.10501111 193.11869323 C-110.09463671 146.48016748 -110.07701684 99.84164646 -110.0546875 53.203125 C-108.18270637 52.24922754 -106.30857995 51.29953955 -104.43359375 50.3515625 C-103.39017822 49.82224121 -102.3467627 49.29291992 -101.27172852 48.74755859 C-89.72272417 43.203125 -89.72272417 43.203125 -84.0546875 43.203125 C-84.07039795 42.55239014 -84.0861084 41.90165527 -84.10229492 41.23120117 C-84.16463399 38.28443076 -84.20367434 35.33779902 -84.2421875 32.390625 C-84.26732422 31.36646484 -84.29246094 30.34230469 -84.31835938 29.28710938 C-84.32802734 28.30419922 -84.33769531 27.32128906 -84.34765625 26.30859375 C-84.3633667 25.40262451 -84.37907715 24.49665527 -84.39526367 23.56323242 C-83.98596414 20.72688939 -83.2908461 19.93055085 -81.0546875 18.203125 C-62.96812992 8.41444376 -41.21176125 4.12852853 -21.0546875 1.203125 C-19.33161377 0.93943115 -19.33161377 0.93943115 -17.57373047 0.67041016 C-11.73466762 -0.04392071 -5.87469558 0.02093128 0 0 Z M-81.0546875 22.203125 C-81.0546875 30.123125 -81.0546875 38.043125 -81.0546875 46.203125 C-84.0246875 46.698125 -84.0246875 46.698125 -87.0546875 47.203125 C-94.30420149 49.16819472 -101.13743184 52.32093514 -108.0546875 55.203125 C-108.0546875 177.633125 -108.0546875 300.063125 -108.0546875 426.203125 C-106.0746875 426.203125 -104.0946875 426.203125 -102.0546875 426.203125 C-102.0546875 425.543125 -102.0546875 424.883125 -102.0546875 424.203125 C-101.53116699 424.03079346 -101.00764648 423.85846191 -100.46826172 423.6809082 C-96.25478939 422.28608769 -92.05748847 420.85638342 -87.875 419.37109375 C-72.8280597 414.09432584 -57.72909821 410.13005948 -42.0546875 407.203125 C-41.10287598 407.02378418 -40.15106445 406.84444336 -39.17041016 406.65966797 C-10.87884153 401.60563043 19.87839641 402.28295133 47.9453125 408.203125 C48.84620605 408.37972656 49.74709961 408.55632812 50.67529297 408.73828125 C69.2792806 412.40945001 86.96300386 419.00408285 103.9453125 427.390625 C104.73945557 427.78209717 105.53359863 428.17356934 106.35180664 428.5769043 C110.24650261 430.57323299 113.65788051 432.69459499 117.0703125 435.44140625 C120.68179962 438.20607423 123.26201719 439.40927457 127.9453125 439.203125 C130.65180724 438.05864307 132.93192471 436.46318419 135.3203125 434.765625 C168.53714704 412.68184139 209.705217 403.97990274 249.0703125 403.953125 C249.96103455 403.95245026 250.85175659 403.95177551 251.76947021 403.95108032 C266.01448768 403.96819213 279.91108503 404.56456558 293.9453125 407.203125 C294.83669922 407.36941406 295.72808594 407.53570312 296.64648438 407.70703125 C315.92689196 411.44408082 335.63478257 416.71355633 353.40625 425.171875 C356.10622836 426.45399205 356.10622836 426.45399205 359.9453125 426.203125 C360.0596622 379.11840924 360.14781269 332.03370813 360.20063915 284.94888098 C360.20689297 279.39487551 360.21336455 273.8408703 360.2199707 268.28686523 C360.22128226 267.1811247 360.22259381 266.07538417 360.2239451 264.93613634 C360.24572416 247.01290926 360.28515942 229.08976206 360.33107648 211.16658243 C360.37777161 192.78692123 360.40559317 174.40730198 360.41575497 156.0275839 C360.42262856 144.67881129 360.44436734 133.33026443 360.48489483 121.98156128 C360.51124753 114.20795102 360.51933051 106.43445811 360.51281939 98.66080638 C360.5096048 94.17026383 360.51466253 89.68011676 360.54133987 85.18964386 C360.56555876 81.08318711 360.56697499 76.97739413 360.54980697 72.8709077 C360.54768323 71.38094511 360.55412241 69.89094215 360.56972841 68.40105977 C360.58963384 66.38436763 360.57605719 64.36742638 360.56055164 62.35069561 C360.56245025 61.22786259 360.56434885 60.10502958 360.56630498 58.94817132 C360.20813183 55.99617202 360.20813183 55.99617202 357.54164094 54.38034898 C356.68485255 53.99186507 355.82806417 53.60338115 354.9453125 53.203125 C354.23366943 52.87868408 353.52202637 52.55424316 352.78881836 52.2199707 C350.48943743 51.31145283 348.18884781 50.40714309 345.8828125 49.515625 C345.08037109 49.19529297 344.27792969 48.87496094 343.45117188 48.54492188 C342.28618164 48.09149414 342.28618164 48.09149414 341.09765625 47.62890625 C340.39632568 47.35473877 339.69499512 47.08057129 338.97241211 46.7980957 C336.65773184 46.01537286 336.65773184 46.01537286 332.9453125 46.203125 C332.9453125 38.283125 332.9453125 30.363125 332.9453125 22.203125 C313.85446767 12.28580301 292.16623047 7.14434353 270.9453125 4.203125 C269.69991699 4.02724854 268.45452148 3.85137207 267.17138672 3.67016602 C256.53670053 2.24750628 246.04206873 1.83999512 235.3203125 1.890625 C234.07856766 1.89385773 234.07856766 1.89385773 232.81173706 1.89715576 C201.20138737 2.02863913 170.49567989 8.26709254 141.9453125 22.203125 C141.9453125 22.863125 141.9453125 23.523125 141.9453125 24.203125 C141.36523438 24.31269531 140.78515625 24.42226563 140.1875 24.53515625 C135.34784973 25.5174615 131.29165134 26.75134411 126.9453125 29.203125 C126.9453125 29.863125 126.9453125 30.523125 126.9453125 31.203125 C124.9653125 30.543125 122.9853125 29.883125 120.9453125 29.203125 C120.9453125 28.543125 120.9453125 27.883125 120.9453125 27.203125 C119.66333984 26.67912109 119.66333984 26.67912109 118.35546875 26.14453125 C117.25074219 25.68949219 116.14601562 25.23445313 115.0078125 24.765625 C113.90566406 24.31316406 112.80351562 23.86070313 111.66796875 23.39453125 C108.9453125 22.203125 108.9453125 22.203125 107.9453125 21.203125 C106.27914135 21.16248668 104.61143155 21.160404 102.9453125 21.203125 C102.9453125 20.543125 102.9453125 19.883125 102.9453125 19.203125 C88.16767894 13.30094703 73.60672019 8.14516078 57.9453125 5.203125 C57.1090332 5.04086426 56.27275391 4.87860352 55.41113281 4.71142578 C11.09213554 -3.50616097 -40.66914232 2.01035241 -81.0546875 22.203125 Z " fill="#C8A1F9" transform="translate(128.0546875,27.796875)"/>
<path d="M0 0 C0 105.27 0 210.54 0 319 C9.24 317.02 18.48 315.04 28 313 C78.68802997 305.18110176 131.43902217 307.32636373 179 328 C179.96292969 328.41765625 180.92585937 328.8353125 181.91796875 329.265625 C183.95230646 330.16136439 185.97764621 331.07752283 188 332 C188 332.66 188 333.32 188 334 C189.7325 334.3403125 189.7325 334.3403125 191.5 334.6875 C194.82016309 335.49558202 197.23761788 336.64976181 200.0625 338.5625 C203.77717804 341.06347135 206.5546321 341.72216451 211 342 C211 341.34 211 340.68 211 340 C272.22889067 304.50078535 346.65752066 304.56946871 414 319 C414 213.73 414 108.46 414 0 C421 1 421 1 428 4 C428 117.19 428 230.38 428 347 C424.30153546 346.26030709 420.9522801 345.42044473 417.37890625 344.29296875 C403.01058274 339.84138079 388.8766755 336.22750717 374 334 C373.29456055 333.88962402 372.58912109 333.77924805 371.86230469 333.66552734 C341.07242605 328.88051194 308.48481163 329.43148763 278 336 C276.84733643 336.24508301 276.84733643 336.24508301 275.67138672 336.49511719 C260.96697378 339.69829311 247.01470095 344.60957931 233.234375 350.63671875 C230.36166996 351.84755698 227.55490287 352.82667178 224.5625 353.6875 C223.69753906 353.93886719 222.83257812 354.19023437 221.94140625 354.44921875 C221.30074219 354.63097656 220.66007813 354.81273437 220 355 C220 355.66 220 356.32 220 357 C218.54462432 357.83848804 217.08559627 358.67063934 215.625 359.5 C214.81289063 359.9640625 214.00078125 360.428125 213.1640625 360.90625 C211 362 211 362 209 362 C209 362.66 209 363.32 209 364 C204.48929128 363.41933041 201.37232103 361.64388594 197.5 359.3125 C185.3795262 352.05296048 185.3795262 352.05296048 172 348 C172 347.34 172 346.68 172 346 C171.44957031 345.85304688 170.89914063 345.70609375 170.33203125 345.5546875 C165.64843923 344.29120686 160.97819062 343.00072024 156.33203125 341.60546875 C101.96286351 325.3931171 43.41997258 327.59584009 -10.06567383 346.44482422 C-12 347 -12 347 -15 347 C-15 234.14 -15 121.28 -15 5 C-5 0 -5 0 0 0 Z M-13 6 C-13 117.54 -13 229.08 -13 344 C-5.56502159 342.3541778 -5.56502159 342.3541778 1.7578125 340.4140625 C63.97891854 322.87053594 134.64793947 322.6208985 192.5 354.46875 C193.26940918 354.88833984 194.03881836 355.30792969 194.83154297 355.74023438 C196.32338441 356.55968316 197.80737945 357.39363886 199.28173828 358.24414062 C200.29083252 358.80391602 200.29083252 358.80391602 201.3203125 359.375 C201.91086426 359.71273438 202.50141602 360.05046875 203.10986328 360.3984375 C206.43079234 361.45536971 209.09888997 360.41222173 212.17797852 359.00366211 C212.90428467 358.59897705 213.63059082 358.19429199 214.37890625 357.77734375 C215.20704834 357.32512451 216.03519043 356.87290527 216.88842773 356.40698242 C217.77087158 355.92205322 218.65331543 355.43712402 219.5625 354.9375 C278.2660395 323.57561426 350.13472022 321.78752795 413.09570312 340.7644043 C414.06314453 341.05484619 415.03058594 341.34528809 416.02734375 341.64453125 C416.87031006 341.90596924 417.71327637 342.16740723 418.58178711 342.43676758 C421.39778672 343.18903421 421.39778672 343.18903421 426 343 C426 231.79 426 120.58 426 6 C420.52174919 2.7018576 420.52174919 2.7018576 416 3 C415.99826375 3.66826669 415.9965275 4.33653338 415.99473864 5.02505058 C415.89181839 44.58956105 415.78372934 84.15405435 415.66888306 123.71853208 C415.65511268 128.46396594 415.64138571 133.20939992 415.62768555 137.95483398 C415.62495724 138.89960594 415.62222894 139.8443779 415.61941796 140.81777931 C415.57528488 156.1362981 415.5346713 171.45482432 415.49534739 186.77335613 C415.45495073 202.47941472 415.41079745 218.18545947 415.36312145 233.89149767 C415.33379766 243.59107377 415.30744065 253.29064876 415.28482103 262.99024285 C415.26905174 269.6322247 415.24964951 276.27418959 415.22733159 282.91615265 C415.21454448 286.75415572 415.20341543 290.59214566 415.19658089 294.43016434 C415.18914734 298.58119322 415.1740925 302.7321583 415.15821838 306.88316345 C415.15724028 308.10979027 415.15626217 309.33641709 415.15525442 310.60021442 C415.14977998 311.70295847 415.14430554 312.80570252 415.1386652 313.94186306 C415.13467814 315.38119297 415.13467814 315.38119297 415.13061053 316.84960026 C415 319 415 319 414 320 C407.47398165 320.48877253 401.41676916 318.99202345 395.0625 317.625 C363.70866263 311.12985478 330.78170303 309.64133218 299 314 C298.0723584 314.12358887 297.1447168 314.24717773 296.18896484 314.37451172 C268.41843511 318.19614425 240.6277423 325.81168305 216.21337891 339.85083008 C208.92480701 343.95095378 208.92480701 343.95095378 204 343 C200.73142497 341.56580956 197.6647871 339.82265467 194.5625 338.0625 C163.77139526 321.35619959 128.10410078 311.66974929 93 311 C92.05640625 310.97953613 91.1128125 310.95907227 90.140625 310.93798828 C63.60544712 310.44854369 35.7810971 311.38748232 10.19140625 319.15625 C7 320 7 320 -1 320 C-1.33 215.39 -1.66 110.78 -2 3 C-6.65653216 2.73738713 -6.65653216 2.73738713 -13 6 Z " fill="#C7A0F9" transform="translate(47,88)"/>
<path d="M0 0 C0.99257812 0.06960937 1.98515625 0.13921875 3.0078125 0.2109375 C18.6070769 1.40531273 33.39853619 3.81069734 48.40283203 8.24609375 C52.10609428 9.32107719 55.83742241 10.28649952 59.57006836 11.25390625 C61.87929328 11.96293783 63.8798039 12.85231726 66 14 C66 14.66 66 15.32 66 16 C66.99 16.061875 67.98 16.12375 69 16.1875 C73.02517111 16.74745324 75.69688812 18.49703466 79.0234375 20.73828125 C81.84887057 22.54186797 84.92119111 23.68865547 88 25 C88.86625 25.721875 89.7325 26.44375 90.625 27.1875 C96.05229775 30.1021599 100.99113603 30.08951929 107 29 C111.31513584 27.04885088 115.23844618 24.60482303 119.23046875 22.08154297 C161.1508725 -3.54033736 217.92781285 -4.70921349 264.30859375 6.46484375 C291.52433036 13.52433036 291.52433036 13.52433036 295 17 C295.09741488 18.76713062 295.12371443 20.53820136 295.12304783 22.30801487 C295.12503888 23.46649325 295.12702993 24.62497163 295.12908131 25.81855541 C295.12616847 27.10743741 295.12325563 28.3963194 295.12025452 29.72425842 C295.1206901 31.0945554 295.12156476 32.4648523 295.12284368 33.83514875 C295.12509121 37.61822244 295.12106386 41.4012681 295.11606562 45.18433821 C295.11176499 49.25729667 295.11320727 53.33025342 295.1139679 57.4032135 C295.11449338 64.46573832 295.11134406 71.52825394 295.10573006 78.59077644 C295.09761832 88.80211881 295.09500017 99.01345671 295.09374207 109.22480195 C295.09155103 125.79025135 295.08488955 142.35569584 295.07543945 158.92114258 C295.06626666 175.01717097 295.05918518 191.11319804 295.05493164 207.20922852 C295.05453756 208.69635823 295.05453756 208.69635823 295.05413551 210.21353097 C295.05283051 215.18697198 295.0515668 220.160413 295.05032361 225.13385403 C295.03994939 266.42257277 295.02232968 307.71128611 295 349 C293.07860118 348.84490371 291.15731766 348.68837872 289.23608398 348.53125 C288.16615707 348.44423828 287.09623016 348.35722656 285.99388123 348.26757812 C281.59827566 347.87472089 277.26653337 347.19097431 272.91015625 346.5 C242.39751762 342.59828397 208.27093075 342.39408554 178 348 C176.88979492 348.19867676 175.77958984 348.39735352 174.63574219 348.60205078 C158.6731034 351.53329188 143.43874106 355.75307758 128.21289062 361.36083984 C126 362 126 362 122 362 C122 362.66 122 363.32 122 364 C112.48671064 368.64522778 102.53712225 372.03963793 92.02075195 368.73803711 C88.63053298 367.499831 85.33133215 366.06151846 82.02172852 364.6237793 C37.92757198 345.48911704 -8.95973465 340.26422451 -56.5625 344.3125 C-57.61772858 344.40050873 -57.61772858 344.40050873 -58.6942749 344.49029541 C-67.82275333 345.27122295 -76.70870939 346.57148633 -85.68725586 348.40307617 C-89 349 -89 349 -93 349 C-93 239.44 -93 129.88 -93 17 C-64.75443777 4.44641679 -30.92233432 -2.17909067 0 0 Z M-58 7.75 C-59.01102783 7.96543457 -60.02205566 8.18086914 -61.0637207 8.40283203 C-71.44184203 10.79810144 -80.77293771 14.4205282 -91 18 C-91 126.24 -91 234.48 -91 346 C-81.05984976 345.32317101 -81.05984976 345.32317101 -71.1875 344.0625 C-19.71506016 335.76451879 35.7449864 341.51953248 83.3359375 362.984375 C93.17439468 367.33836333 101.6508201 370.06124605 112.26660156 366.16894531 C115.73665664 364.73320479 119.15788062 363.19918612 122.57958984 361.65234375 C155.20457178 347.03708952 190.78084952 342.81219741 226.15380859 342.81469727 C229.59615592 342.81251826 233.03817814 342.79433134 236.48046875 342.77539062 C249.51117256 342.741473 262.06614199 343.39593145 275 345 C280.94 345.66 286.88 346.32 293 347 C293 238.43 293 129.86 293 18 C236.08623874 -0.97125375 178.11991664 -5.254487 123.125 22.1875 C119.15331448 24.19454913 115.44688802 26.33609192 111.875 29 C106.42511057 32.47788996 100.15593105 32.12576752 94 31 C90.38363367 29.37555831 87.10152507 27.41304893 83.765625 25.29296875 C42.40101626 -0.7755828 -11.65975074 -2.30726082 -58 7.75 Z " fill="#C79FF9" transform="translate(153,42)"/>
<path d="M0 0 C-0.51012216 10.77188191 -2.04687308 21.15209249 -3.9375 31.75 C-4.20568794 33.28765418 -4.47326852 34.82541442 -4.74023438 36.36328125 C-8.62259653 58.62259653 -8.62259653 58.62259653 -10 60 C-19.60915206 61.27806456 -29.32906672 61.11173094 -39 61 C-37.81997063 52.70089233 -36.00904546 42.30860144 -29.25 36.73046875 C-26.20387822 35.19575178 -23.24853203 34.03305808 -20 33 C-19.08347656 32.66871094 -18.16695313 32.33742187 -17.22265625 31.99609375 C-15.1680991 31.27229242 -13.08645555 30.62593666 -11 30 C-11.03093173 27.58414426 -11.03093173 27.58414426 -12 25 C-17.15121034 21.06881316 -22.83417553 21.70377712 -29 22 C-28.76287848 19.62878484 -28.52529148 17.25763133 -28.28515625 14.88671875 C-28.09616955 12.97355204 -27.91636733 11.05945416 -27.74609375 9.14453125 C-27.66488281 8.25121094 -27.58367187 7.35789062 -27.5 6.4375 C-27.4278125 5.61121094 -27.355625 4.78492187 -27.28125 3.93359375 C-27 2 -27 2 -26 1 C-17.48302904 -0.5643416 -8.62028003 -0.09625623 0 0 Z " fill="#FEFCF9" transform="translate(398,100)"/>
<path d="M0 0 C3.23551706 2.11011982 4.85394116 3.78091174 7 7 C7.62874244 12.99969482 6.87979242 19.06140119 6 25 C6.66386719 24.79503906 7.32773437 24.59007812 8.01171875 24.37890625 C8.89472656 24.10949219 9.77773438 23.84007812 10.6875 23.5625 C11.55761719 23.29566406 12.42773438 23.02882813 13.32421875 22.75390625 C20.36835712 20.76920741 20.36835712 20.76920741 24.25 22.1875 C27 24 27 24 27.875 26.1875 C27.91625 26.785625 27.9575 27.38375 28 28 C24.15065847 30.85021667 21.07422933 31.35582418 16.46240234 31.7722168 C8.68456897 32.38642027 8.68456897 32.38642027 2.48828125 36.63671875 C1.02803127 39.39811158 -0.11595544 42.00745834 -1 45 C3.34184202 44.81535634 3.34184202 44.81535634 7 43 C8.9609375 43.05078125 8.9609375 43.05078125 11.375 43.3125 C12.16648437 43.39113281 12.95796875 43.46976562 13.7734375 43.55078125 C16 44 16 44 19 46 C18.67 47.32 18.34 48.64 18 50 C17.25878906 50.17015625 16.51757812 50.3403125 15.75390625 50.515625 C14.70074219 50.75796875 13.64757812 51.0003125 12.5625 51.25 C11.38042969 51.51941406 10.19835937 51.78882813 8.98046875 52.06640625 C6.22249737 52.70318029 3.47926314 53.38363564 0.73828125 54.08984375 C-16.21697641 58.39947141 -16.21697641 58.39947141 -23 57 C-24.8515625 55.72265625 -24.8515625 55.72265625 -26 54 C-25.6875 51.8125 -25.6875 51.8125 -25 50 C-24.33613281 49.96261719 -23.67226563 49.92523438 -22.98828125 49.88671875 C-15.87626765 49.54001072 -15.87626765 49.54001072 -10 46 C-8.41018888 42.74692114 -7.15198244 39.43020469 -6 36 C-6.53367187 36.144375 -7.06734375 36.28875 -7.6171875 36.4375 C-21.36549492 39.86268385 -21.36549492 39.86268385 -27.1875 36.87890625 C-29.125 35.5 -29.125 35.5 -32 33 C-31.67 31.68 -31.34 30.36 -31 29 C-30.00033203 29.14308594 -30.00033203 29.14308594 -28.98046875 29.2890625 C-22.76902092 30.03617371 -17.51845973 29.83105658 -11.41015625 28.47265625 C-9 28 -9 28 -5 28 C-5.05208246 24.76954027 -5.14720154 21.54171241 -5.25 18.3125 C-5.26417969 17.40048828 -5.27835937 16.48847656 -5.29296875 15.54882812 C-5.49494997 9.99434449 -6.02215589 7.16082494 -10 3 C-10 2.01 -10 1.02 -10 0 C-6.73770277 -1.63114861 -3.41962514 -0.85982897 0 0 Z " fill="#FF0505" transform="translate(281,243)"/>
<path d="M0 0 C1.10087193 7.01805857 1.09733092 13.90565767 1 21 C-2.42232972 22.14077657 -5.08673217 22.09815117 -8.6875 22.0625 C-10.45673828 22.04896484 -10.45673828 22.04896484 -12.26171875 22.03515625 C-13.61716797 22.01775391 -13.61716797 22.01775391 -15 22 C-13.13433512 25.62793998 -13.13433512 25.62793998 -10 28 C-7.9625237 28.22858114 -5.91959697 28.41024278 -3.875 28.5625 C-2.23144531 28.68818359 -2.23144531 28.68818359 -0.5546875 28.81640625 C0.70988281 28.90728516 0.70988281 28.90728516 2 29 C2.9731681 31.9195043 3.1929546 34.05444951 3.31640625 37.10546875 C3.35830078 38.08837891 3.40019531 39.07128906 3.44335938 40.08398438 C3.48267578 41.10814453 3.52199219 42.13230469 3.5625 43.1875 C3.60568359 44.22326172 3.64886719 45.25902344 3.69335938 46.32617188 C3.79944366 48.8839819 3.90150146 51.44188845 4 54 C2.10614563 54.50744423 0.20981334 55.00564574 -1.6875 55.5 C-2.74324219 55.7784375 -3.79898437 56.056875 -4.88671875 56.34375 C-7.71142672 56.9391715 -10.12836708 57.12786492 -13 57 C-17.05295524 43.80469151 -20.03240994 31.41907456 -20.75390625 17.578125 C-20.93234751 13.94996783 -20.93234751 13.94996783 -21.71484375 10.234375 C-22 7 -22 7 -20.76416016 5.37084961 C-18.8162787 3.85723843 -17.45414411 3.36409351 -15.05859375 2.83203125 C-13.93614258 2.57583008 -13.93614258 2.57583008 -12.79101562 2.31445312 C-12.01435547 2.14880859 -11.23769531 1.98316406 -10.4375 1.8125 C-9.65697266 1.63525391 -8.87644531 1.45800781 -8.07226562 1.27539062 C-2.36501569 0 -2.36501569 0 0 0 Z " fill="#FEFDF9" transform="translate(327,110)"/>
<path d="M0 0 C2.875 2 2.875 2 5 4 C4.05153392 10.11511026 2.75512195 15.91211728 0.875 21.8125 C-1.18257279 28.79437621 -2.09749239 35.75259533 -1 43 C0.87435385 45.562892 1.91962873 45.97320958 5 47 C8.2877076 47.22772829 11.580208 47.18515662 14.875 47.1875 C16.22271484 47.20586914 16.22271484 47.20586914 17.59765625 47.22460938 C24.06274372 47.30796662 24.06274372 47.30796662 30 45 C33.5560603 38.15129128 34.09486313 30.5818524 35 23 C37.88194337 25.88194337 38.16414728 29.32494623 39 33.1875 C39.33168042 34.68135754 39.66499762 36.17485266 40 37.66796875 C40.16234131 38.39516113 40.32468262 39.12235352 40.49194336 39.87158203 C40.9755723 41.89766426 41.53315698 43.88331613 42.12890625 45.87890625 C43.05454457 49.195431 43.32275226 50.82539458 42 54 C35.81561139 58.68007787 29.30656383 58.21237183 21.875 58.25 C20.87984375 58.270625 19.8846875 58.29125 18.859375 58.3125 C9.7501038 58.360068 1.19973363 56.97051081 -6 51 C-11.54761279 43.37368743 -9.2943173 33.27045194 -7.92041016 24.47509766 C-7.51549504 22.03102812 -7.08660403 19.5920376 -6.65625 17.15234375 C-5.50480063 10.77632962 -5.50480063 10.77632962 -8 5 C-8 3.68 -8 2.36 -8 1 C-5.14675563 -0.42662219 -3.16545451 -0.31033868 0 0 Z " fill="#FF0505" transform="translate(287,317)"/>
<path d="M0 0 C2.39701193 1.38099452 3.9732772 3.06978781 6 5 C5.37183502 8.94949704 4.1354471 12.19892028 2.4375 15.8125 C1.98246094 16.78832031 1.52742188 17.76414062 1.05859375 18.76953125 C0.53458984 19.87361328 0.53458984 19.87361328 0 21 C0.78375 20.195625 1.5675 19.39125 2.375 18.5625 C5 16 5 16 7 15 C6.45309151 21.45352016 5.64910676 25.51047799 0.73046875 30.1328125 C-10.88208871 39.23020775 -10.88208871 39.23020775 -15.875 38.6875 C-16.57625 38.460625 -17.2775 38.23375 -18 38 C-18.375 35.3125 -18.375 35.3125 -18 32 C-16.5664652 30.89984538 -15.12861911 29.80460031 -13.6640625 28.74609375 C-8.98636693 23.83780755 -7.13644075 15.54980903 -6 9 C-12.77211952 11.0905722 -19.00327606 13.18390294 -25 17 C-24.47702445 23.27570654 -23.31817117 29.03983796 -21.62109375 35.10546875 C-20.96747437 38.15158172 -20.89416762 40.89404983 -21 44 C-23.475 44.495 -23.475 44.495 -26 45 C-33.85275528 36.86678917 -36.78260811 22.46657523 -37.1015625 11.51171875 C-36.80535941 5.62291916 -36.80535941 5.62291916 -36 3 C-34.68 2.34 -33.36 1.68 -32 1 C-31.01 4.3 -30.02 7.6 -29 11 C-26.96542964 9.98271482 -24.93088146 8.96538456 -22.89697266 7.94677734 C-20.47890717 6.74382545 -18.05235923 5.55907767 -15.625 4.375 C-14.78710938 3.95476562 -13.94921875 3.53453125 -13.0859375 3.1015625 C-4.98600129 -0.82104812 -4.98600129 -0.82104812 0 0 Z " fill="#FF0808" transform="translate(229,334)"/>
<path d="M0 0 C1.57297852 -0.00386719 1.57297852 -0.00386719 3.17773438 -0.0078125 C4.26248047 -0.00007812 5.34722656 0.00765625 6.46484375 0.015625 C8.09776367 0.00402344 8.09776367 0.00402344 9.76367188 -0.0078125 C11.3347168 -0.00394531 11.3347168 -0.00394531 12.9375 0 C14.36654663 0.00338379 14.36654663 0.00338379 15.82446289 0.00683594 C18.47879514 0.27329982 20.12508648 0.91529491 22.40234375 2.265625 C18.44221208 15.77666245 12.04776934 29.79622457 0.40234375 38.265625 C-0.25765625 38.265625 -0.91765625 38.265625 -1.59765625 38.265625 C-3.31201805 36.30635437 -4.98170793 34.30682288 -6.59765625 32.265625 C-6.92765625 36.225625 -7.25765625 40.185625 -7.59765625 44.265625 C-9.08265625 44.760625 -9.08265625 44.760625 -10.59765625 45.265625 C-11.67938458 30.80824008 -11.67938458 30.80824008 -9.0390625 27.04296875 C-7.09765625 25.578125 -7.09765625 25.578125 -5.15625 24.37109375 C-4.64191406 24.00628906 -4.12757813 23.64148438 -3.59765625 23.265625 C-3.00801947 20.50787158 -3.00801947 20.50787158 -3.59765625 18.265625 C-7.06265625 16.285625 -7.06265625 16.285625 -10.59765625 14.265625 C-10.59765625 10.305625 -10.59765625 6.345625 -10.59765625 2.265625 C-6.25790685 0.52972524 -4.41375886 0.01043882 0 0 Z " fill="#FEFCF8" transform="translate(172.59765625,141.734375)"/>
<path d="M0 0 C2.48645335 2.48645335 3.85612623 3.96508983 4.34375 7.47265625 C4 10 4 10 2.3828125 11.66015625 C-6.17101307 16.97299947 -13.88717934 20.34755996 -24 21 C-20.42115302 17.30931405 -16.66273258 13.90801605 -12.76953125 10.55078125 C-11.47133312 9.41306678 -10.2205967 8.2205967 -9 7 C-15.88112975 2.38798274 -28.68682578 4.36211076 -36.5390625 5.65234375 C-47.71041595 7.86161808 -62.66508212 12.33738082 -69.44140625 22.0703125 C-70.19158938 23.44521259 -70.94158804 24.82021336 -71.69140625 26.1953125 C-73.22387374 28.30874528 -74.61119529 29.02023654 -77 30 C-79.55860918 28.18765183 -79.98991111 27.04943558 -80.625 23.9375 C-79.84819162 19.04360719 -77.8342207 16.53941093 -74.890625 12.64453125 C-72.0617092 8.68755606 -70.03386656 4.40514877 -68 0 C-67.34 0 -66.68 0 -66 0 C-65.67 2.97 -65.34 5.94 -65 9 C-63.99582031 8.61328125 -62.99164063 8.2265625 -61.95703125 7.828125 C-16.0148874 -9.73499715 -16.0148874 -9.73499715 0 0 Z " fill="#FF0606" transform="translate(319,304)"/>
<path d="M0 0 C0 123.42 0 246.84 0 374 C-2.31 374 -4.62 374 -7 374 C-7.66 373.34 -8.32 372.68 -9 372 C-6.69 372.33 -4.38 372.66 -2 373 C-2.03596172 325.91520945 -2.09284035 278.83048478 -2.17792095 231.74575598 C-2.18793886 226.191751 -2.19778292 220.63774572 -2.20751953 215.08374023 C-2.2094609 213.9779997 -2.21140228 212.87225917 -2.21340248 211.73301134 C-2.24445563 193.80982971 -2.26141237 175.8866609 -2.27319422 157.96345743 C-2.28558863 139.58375457 -2.31305124 121.20411918 -2.35461307 102.8244589 C-2.37979754 91.47575687 -2.39311368 80.12716665 -2.39142957 68.77843628 C-2.3913999 61.00479841 -2.40595627 53.23127477 -2.43216428 45.45768138 C-2.44686706 40.9672225 -2.4549649 36.47699785 -2.44580269 31.98651886 C-2.43756545 27.88009258 -2.44753222 23.7741386 -2.47233662 19.6677827 C-2.47805901 18.17784383 -2.47694548 16.68786076 -2.46851245 15.19793477 C-2.45807047 13.1811583 -2.47436145 11.16429529 -2.49219131 9.14757061 C-2.49446964 7.46332109 -2.49446964 7.46332109 -2.49679399 5.74504632 C-2.74222681 2.86202515 -2.74222681 2.86202515 -5.03173804 1.11577684 C-5.68126449 0.74757048 -6.33079093 0.37936412 -7 0 C-4 -1 -4 -1 0 0 Z " fill="#C195F9" transform="translate(490,81)"/>
<path d="M0 0 C13.2535827 -1.12318497 25.37966145 5.61123131 35.3203125 13.9453125 C40.27336972 18.60593829 44.42430587 23.46825394 45.3046875 30.3984375 C45.4263191 34.57445589 45.38356993 36.4246451 43 40 C38.25130829 39.79792801 35.60934612 38.93432582 31.75 36.125 C26.84254421 32.59909049 21.8556821 31.24775282 16 30 C16 29.34 16 28.68 16 28 C19.465 27.505 19.465 27.505 23 27 C23 21.34715175 15.24645325 15.1039364 11.5 11.3125 C8.72916853 8.59870108 5.89750213 6.00553716 2.9375 3.5 C1.968125 2.675 0.99875 1.85 0 1 C0 0.67 0 0.34 0 0 Z " fill="#FCBD07" transform="translate(378,191)"/>
<path d="M0 0 C0.598125 0.226875 1.19625 0.45375 1.8125 0.6875 C2.1528125 2.481875 2.1528125 2.481875 2.5 4.3125 C3.90033145 9.88424135 6.6669742 12.99366385 11.1875 16.5625 C14.84506949 18.13002978 16.8282611 18.26585726 20.8125 17.6875 C27.76986956 14.66120024 33.9305538 10.44024736 39.8125 5.6875 C40.4725 6.0175 41.1325 6.3475 41.8125 6.6875 C38.66583403 11.0457794 35.4912885 15.38106313 32.28320312 19.69433594 C30.95535373 21.49389809 29.6558608 23.31063718 28.359375 25.1328125 C23.16848755 32.0842457 23.16848755 32.0842457 19.828125 33.5703125 C13.81102296 34.12388589 8.39107806 30.16936673 3.8125 26.6875 C-1.11755097 22.16053496 -4.72014836 16.93910173 -5.46875 10.12890625 C-5.7017996 3.43844053 -5.7017996 3.43844053 -3.9140625 0.828125 C-2.1875 -0.3125 -2.1875 -0.3125 0 0 Z " fill="#FCBD06" transform="translate(298.1875,193.3125)"/>
<path d="M0 0 C2.125 2.1875 2.125 2.1875 2.125 5.1875 C0.89136719 5.53361328 0.89136719 5.53361328 -0.3671875 5.88671875 C-6.96181839 7.8133257 -12.94340502 9.98017776 -18.94921875 13.33203125 C-19.58472656 13.61433594 -20.22023437 13.89664062 -20.875 14.1875 C-21.535 13.8575 -22.195 13.5275 -22.875 13.1875 C-21.555 12.1975 -20.235 11.2075 -18.875 10.1875 C-25.39201413 11.5600903 -31.73992622 13.08968316 -38.05712891 15.1887207 C-52.56325256 20.0029726 -52.56325256 20.0029726 -60.4375 16.6875 C-61.241875 16.1925 -62.04625 15.6975 -62.875 15.1875 C-62.875 13.8675 -62.875 12.5475 -62.875 11.1875 C-61.80121094 11.25324219 -60.72742188 11.31898438 -59.62109375 11.38671875 C-53.79147538 11.3803168 -48.48532434 9.64689813 -42.9375 8 C-41.84026611 7.68337402 -40.74303223 7.36674805 -39.61254883 7.04052734 C-36.36344253 6.10026539 -33.11882899 5.14578836 -29.875 4.1875 C-28.11730207 3.67278569 -26.35950005 3.15842659 -24.6015625 2.64453125 C-21.76731963 1.8145303 -18.93555864 0.97684883 -16.10546875 0.1328125 C-4.96180051 -3.12809163 -4.96180051 -3.12809163 0 0 Z " fill="#FF0909" transform="translate(240.875,273.8125)"/>
<path d="M0 0 C-0.96355353 14.78132118 -0.96355353 14.78132118 -2 21 C-8.46309126 23.38113889 -15.10266291 25 -22 25 C-22 17.74 -22 10.48 -22 3 C-14.42149936 1.08543142 -7.8058161 -0.3969059 0 0 Z " fill="#FEFCF8" transform="translate(360,104)"/>
<path d="M0 0 C3.84390257 0.17472284 5.75619866 0.81979901 8.875 3.125 C11.64066118 6.86677689 11.48592211 8.38832413 11 13 C9.77409911 16.39778984 8.17346271 19.552815 6.5 22.75 C6.04657227 23.63308838 5.59314453 24.51617676 5.12597656 25.42602539 C-0.00059266 35.21057741 -5.53101011 44.99224933 -15.5625 50.375 C-18.39709284 51.10181868 -20.21056428 50.79698163 -23 50 C-21.87517942 46.62553826 -21.01600451 45.98045314 -18.3125 43.8125 C-10.18494483 36.84395448 -6.15251732 28.78284227 -2 19 C-1.64421875 18.18402344 -1.2884375 17.36804688 -0.921875 16.52734375 C0.5928104 12.84390426 1.15170425 10.7746178 0 7 C-0.39013716 5.0103005 -0.73202649 3.00980131 -1 1 C-0.67 0.67 -0.34 0.34 0 0 Z " fill="#FF0909" transform="translate(263,321)"/>
<path d="M0 0 C1.17755859 0.14888672 1.17755859 0.14888672 2.37890625 0.30078125 C4.4375 0.6875 4.4375 0.6875 6.4375 1.6875 C6.4375 3.0075 6.4375 4.3275 6.4375 5.6875 C-3.14999585 10.86712237 -16.61846792 14.70207307 -27.5625 12.6875 C-29.38671875 11.16015625 -29.38671875 11.16015625 -30.5625 9.6875 C-30.2325 8.6975 -29.9025 7.7075 -29.5625 6.6875 C-28.06976563 6.76097656 -28.06976563 6.76097656 -26.546875 6.8359375 C-22.29810053 6.67764982 -18.77228418 5.72500818 -14.8125 4.3125 C-13.82443359 3.97992188 -13.82443359 3.97992188 -12.81640625 3.640625 C-1.61727782 -0.22114342 -1.61727782 -0.22114342 0 0 Z " fill="#FF0A0A" transform="translate(228.5625,311.3125)"/>
<path d="M0 0 C8.14208667 -0.39753407 14.11449242 -0.48699398 20.4375 5.1875 C22.60229108 9.08412394 22.36824919 11.58100968 22 16 C20.05909174 17.94090826 16.52706098 17.39919435 13.9375 17.5625 C12.64714844 17.64628906 11.35679687 17.73007812 10.02734375 17.81640625 C9.02832031 17.87699219 8.02929688 17.93757813 7 18 C7.495 17.4225 7.99 16.845 8.5 16.25 C10.36980013 13.89599371 10.36980013 13.89599371 10 10 C6.37 8.35 2.74 6.7 -1 5 C-0.67 3.35 -0.34 1.7 0 0 Z " fill="#FF0404" transform="translate(212,248)"/>
<path d="M0 0 C0.53625 0.33 1.0725 0.66 1.625 1 C1.625 2.32 1.625 3.64 1.625 5 C-0.93626064 6.294174 -3.49893358 7.58540784 -6.0625 8.875 C-6.78373047 9.23980469 -7.50496094 9.60460937 -8.24804688 9.98046875 C-11.90625364 11.8179242 -15.5361695 13.56138502 -19.375 15 C-18.055 13.35 -16.735 11.7 -15.375 10 C-16.01566406 10.15597656 -16.65632813 10.31195313 -17.31640625 10.47265625 C-22.74734363 11.6948195 -26.92555361 12.18466226 -32.375 11 C-32.9375 9.0625 -32.9375 9.0625 -33.375 7 C-31.68991827 5.31491827 -29.37138024 5.54946566 -27.0625 5.25 C-21.26641014 4.35191695 -16.44191777 2.53877899 -11.1640625 0.0234375 C-7.20952814 -1.42766615 -3.90567438 -1.64449448 0 0 Z " fill="#FF1111" transform="translate(230.375,294)"/>
<path d="M0 0 C-1.65 5.61 -3.3 11.22 -5 17 C-9.95 17.495 -9.95 17.495 -15 18 C-16.38226016 15.23547967 -16.09525387 12.9538637 -16.0625 9.875 C-16.05347656 8.77929688 -16.04445313 7.68359375 -16.03515625 6.5546875 C-16.02355469 5.71164063 -16.01195312 4.86859375 -16 4 C-13.90049414 3.13444052 -11.7952093 2.28288723 -9.6875 1.4375 C-8.51574219 0.96183594 -7.34398437 0.48617187 -6.13671875 -0.00390625 C-3 -1 -3 -1 0 0 Z " fill="#FEFAF1" transform="translate(355,145)"/>
<path d="M0 0 C0 1.65 0 3.3 0 5 C-2.43431639 6.17374173 -4.87204182 7.33915763 -7.3125 8.5 C-8.00279297 8.83386719 -8.69308594 9.16773438 -9.40429688 9.51171875 C-14.66015625 12 -14.66015625 12 -18 12 C-18 8.7 -18 5.4 -18 2 C-11.93184478 0.77100654 -6.20104812 -0.27560214 0 0 Z " fill="#FEF8EA" transform="translate(356,135)"/>
<path d="M0 0 C6.55118489 -0.2165681 12.62176654 0.58668865 19.0625 1.75 C20.06877441 1.92974365 21.07504883 2.1094873 22.11181641 2.29467773 C39.88556897 5.55608608 39.88556897 5.55608608 46 8 C46.495 9.485 46.495 9.485 47 11 C46.03964844 10.75765625 45.07929688 10.5153125 44.08984375 10.265625 C35.42243767 8.12808797 26.73468836 6.33431369 17.9375 4.8125 C16.97513428 4.64588867 16.01276855 4.47927734 15.02124023 4.30761719 C9.69190221 3.404481 4.36894562 2.6260608 -1 2 C-0.67 1.34 -0.34 0.68 0 0 Z " fill="#CFADFA" transform="translate(150,433)"/>
<path d="M0 0 C-3.82093377 2.06429669 -7.87200211 3.50277015 -11.9375 5 C-13.34263612 5.52032538 -14.7475884 6.0411475 -16.15234375 6.5625 C-16.77101318 6.79066406 -17.38968262 7.01882812 -18.02709961 7.25390625 C-20.36365357 8.13752324 -22.68061702 9.07224681 -25 10 C-25.33 17.92 -25.66 25.84 -26 34 C-27.32 33.67 -28.64 33.34 -30 33 C-29.01 33 -28.02 33 -27 33 C-27.33 24.42 -27.66 15.84 -28 7 C-15.59547052 1.36157751 -15.59547052 1.36157751 -10.625 0.6875 C-9.66851562 0.54699219 -8.71203125 0.40648437 -7.7265625 0.26171875 C-5.13017219 0.01249504 -2.60630612 -0.05212612 0 0 Z " fill="#C59CF9" transform="translate(73,40)"/>
<path d="M0 0 C0 3.3 0 6.6 0 10 C-1.89492006 10.33848652 -3.79098466 10.67056911 -5.6875 11 C-6.74324219 11.185625 -7.79898438 11.37125 -8.88671875 11.5625 C-11.64904062 11.95068074 -14.21742043 12.08259976 -17 12 C-13.0637025 7.67007275 -6.06457203 0 0 0 Z " fill="#FEFAF0" transform="translate(151,179)"/>
<path d="M0 0 C0 2.64 0 5.28 0 8 C-2.45546966 8.86329773 -4.91378043 9.71589436 -7.375 10.5625 C-8.07367188 10.80935547 -8.77234375 11.05621094 -9.4921875 11.31054688 C-11.30959075 11.93091049 -13.15391397 12.47106524 -15 13 C-15.66 12.67 -16.32 12.34 -17 12 C-14.54800572 9.99212374 -12.08740624 7.99508826 -9.625 6 C-8.57699219 5.14148438 -8.57699219 5.14148438 -7.5078125 4.265625 C-6.8375 3.72421875 -6.1671875 3.1828125 -5.4765625 2.625 C-4.85861816 2.12226562 -4.24067383 1.61953125 -3.60400391 1.1015625 C-2 0 -2 0 0 0 Z " fill="#FEF6E7" transform="translate(152,104)"/>
<path d="M0 0 C0 0.66 0 1.32 0 2 C-3.20734009 2.81645473 -6.41603716 3.62744888 -9.625 4.4375 C-10.52863281 4.66759766 -11.43226563 4.89769531 -12.36328125 5.13476562 C-16.89245948 6.27532511 -21.3713669 7.33107794 -26 8 C-26.33 7.34 -26.66 6.68 -27 6 C-24.27161565 5.18479365 -21.54235583 4.37275157 -18.8125 3.5625 C-17.65911133 3.21735352 -17.65911133 3.21735352 -16.48242188 2.86523438 C-10.93297132 1.22183485 -5.83600573 -0.16674302 0 0 Z " fill="#CFADFA" transform="translate(320,31)"/>
<path d="M0 0 C5.40176228 -0.34516053 9.79018644 0.90560931 14.875 2.5 C15.65875 2.73847656 16.4425 2.97695313 17.25 3.22265625 C19.16894 3.80769893 21.08479854 4.40283251 23 5 C23 5.99 23 6.98 23 8 C11.12 5.03 11.12 5.03 -1 2 C-0.67 1.34 -0.34 0.68 0 0 Z " fill="#CFADFA" transform="translate(431,438)"/>
<path d="M0 0 C0.66 0.33 1.32 0.66 2 1 C1.67 6.28 1.34 11.56 1 17 C0.01 17.33 -0.98 17.66 -2 18 C-2.05382106 15.37472811 -2.09358313 12.75055287 -2.125 10.125 C-2.14175781 9.37863281 -2.15851563 8.63226563 -2.17578125 7.86328125 C-2.1933959 5.90805539 -2.10320189 3.95257979 -2 2 C-1.34 1.34 -0.68 0.68 0 0 Z " fill="#FEF4E1" transform="translate(164,169)"/>
<path d="M0 0 C0 0.66 0 1.32 0 2 C-2.91355841 2.86627405 -5.83004328 3.71831006 -8.75 4.5625 C-9.575 4.80935547 -10.4 5.05621094 -11.25 5.31054688 C-12.04921875 5.53935547 -12.8484375 5.76816406 -13.671875 6.00390625 C-14.4050293 6.21861572 -15.13818359 6.4333252 -15.89355469 6.65454102 C-18.23869816 7.03914672 -19.75825808 6.72878764 -22 6 C-18.88140365 3.92093577 -16.25435952 2.9857867 -12.6875 1.875 C-11.57761719 1.52179687 -10.46773437 1.16859375 -9.32421875 0.8046875 C-6.07483807 0.01811591 -3.32692608 -0.15099513 0 0 Z " fill="#CFADFA" transform="translate(83,35)"/>
<path d="M0 0 C0 0.66 0 1.32 0 2 C-2.52019972 2.33885038 -5.04098516 2.67120335 -7.5625 3 C-8.26697266 3.09539063 -8.97144531 3.19078125 -9.69726562 3.2890625 C-14.17367855 3.86666417 -18.48661238 4.09489383 -23 4 C-23.33 3.34 -23.66 2.68 -24 2 C-15.97649696 0.81603117 -8.13544686 -0.28545428 0 0 Z " fill="#CFADFA" transform="translate(124,28)"/>
<path d="M0 0 C0 0.33 0 0.66 0 1 C-2.64 1.33 -5.28 1.66 -8 2 C-8 2.66 -8 3.32 -8 4 C-12.95 3.67 -17.9 3.34 -23 3 C-23 2.67 -23 2.34 -23 2 C-15.26940505 0.64290496 -7.85546636 -0.31918373 0 0 Z " fill="#C59CF9" transform="translate(358,432)"/>
<path d="M0 0 C5.78591511 -0.10477512 11.29309366 0.00749455 17 1 C16.67 1.66 16.34 2.32 16 3 C10.72 2.67 5.44 2.34 0 2 C0 1.34 0 0.68 0 0 Z " fill="#CFADFA" transform="translate(383,28)"/>
<path d="M0 0 C0.66 0.33 1.32 0.66 2 1 C2 1.66 2 2.32 2 3 C-1.96 4.32 -5.92 5.64 -10 7 C-10.66 6.34 -11.32 5.68 -12 5 C-10.04578965 4.13644222 -8.08648653 3.28440066 -6.125 2.4375 C-5.03445313 1.96183594 -3.94390625 1.48617187 -2.8203125 0.99609375 C-1.88960938 0.66738281 -0.95890625 0.33867187 0 0 Z " fill="#FCBF19" transform="translate(350,142)"/>
<path d="M0 0 C2.64 0.33 5.28 0.66 8 1 C5.39457984 2.73694677 3.41657225 3.69100448 0.5 4.6875 C-0.2734375 4.95949219 -1.046875 5.23148438 -1.84375 5.51171875 C-4 6 -4 6 -7 5 C-4.69 4.34 -2.38 3.68 0 3 C0 2.01 0 1.02 0 0 Z " fill="#C49BF9" transform="translate(290,38)"/>
<path d="M0 0 C0.99 0.33 1.98 0.66 3 1 C0.3139714 2.79068573 -1.6626589 3.66055791 -4.6875 4.625 C-5.49574219 4.88539063 -6.30398438 5.14578125 -7.13671875 5.4140625 C-7.75160156 5.60742188 -8.36648438 5.80078125 -9 6 C-8.67 5.01 -8.34 4.02 -8 3 C-5.0625 1.875 -5.0625 1.875 -2 1 C-1.34 0.67 -0.68 0.34 0 0 Z " fill="#CFADFA" transform="translate(291,449)"/>
<path d="M0 0 C0 0.99 0 1.98 0 3 C1.32 3.33 2.64 3.66 4 4 C2.41590006 3.88512252 0.83271037 3.75765492 -0.75 3.625 C-1.63171875 3.55539063 -2.5134375 3.48578125 -3.421875 3.4140625 C-5.99066382 3.00149945 -7.75841015 2.28839043 -10 1 C-6.59437148 0.22157062 -3.49234244 -0.09978121 0 0 Z " fill="#C59CF9" transform="translate(196,32)"/>
<path d="M0 0 C0.53625 0.37125 1.0725 0.7425 1.625 1.125 C-2.00923209 3.45090854 -5.14588331 3.28765833 -9.375 3.125 C-8.375 1.125 -8.375 1.125 -5.5625 -0.125 C-2.375 -0.875 -2.375 -0.875 0 0 Z " fill="#CFADFA" transform="translate(28.375,453.875)"/>
<path d="M0 0 C5.53846154 0.61538462 5.53846154 0.61538462 7.875 2.5625 C8.431875 3.2740625 8.431875 3.2740625 9 4 C7 5 7 5 5.0546875 4.44140625 C4.33539063 4.15136719 3.61609375 3.86132812 2.875 3.5625 C2.15054688 3.27503906 1.42609375 2.98757813 0.6796875 2.69140625 C-0.15175781 2.34916016 -0.15175781 2.34916016 -1 2 C-0.67 1.34 -0.34 0.68 0 0 Z " fill="#CEACFA" transform="translate(207,446)"/>
<path d="M0 0 C0 0.99 0 1.98 0 3 C0.99 3.33 1.98 3.66 3 4 C1.741875 3.87625 0.48375 3.7525 -0.8125 3.625 C-1.87404297 3.52058594 -1.87404297 3.52058594 -2.95703125 3.4140625 C-5 3 -5 3 -8 1 C-5.10765685 0.17361624 -3.11257569 0 0 0 Z " fill="#C59CF9" transform="translate(429,35)"/>
<path d="M0 0 C1.52519276 0.08937803 3.04681929 0.24537146 4.5625 0.4375 C5.80193359 0.59025391 5.80193359 0.59025391 7.06640625 0.74609375 C7.70449219 0.82988281 8.34257812 0.91367187 9 1 C9 1.66 9 2.32 9 3 C2.9453125 3.1953125 2.9453125 3.1953125 1 3 C0.34 2.34 -0.32 1.68 -1 1 C-0.67 0.67 -0.34 0.34 0 0 Z " fill="#CFADFA" transform="translate(481,454)"/>
<path d="M0 0 C-2.1490568 2.47141532 -3.68879509 3.69898137 -7 4 C-9.25 3.0625 -9.25 3.0625 -11 2 C-7.17679443 0.57741188 -4.08718695 -0.24042276 0 0 Z " fill="#C49CF9" transform="translate(319,439)"/>
<path d="M0 0 C-1 1.5 -1 1.5 -3 3 C-5.71846235 3.27345479 -8.25677199 3.13491285 -11 3 C-4.33333333 -1.44444444 -4.33333333 -1.44444444 0 0 Z " fill="#C399F9" transform="translate(46,446)"/>
<path d="M0 0 C6.75 0.75 6.75 0.75 9 3 C5.23375329 4.25541557 3.62811066 3.37061958 0 2 C0 1.34 0 0.68 0 0 Z " fill="#CFADFA" transform="translate(471,74)"/>
<path d="M0 0 C-2.5654594 2.5654594 -4.47686668 2.54046087 -8 3 C-7.67 2.01 -7.34 1.02 -7 0 C-4.05610218 -1.17755913 -3.10046087 -1.03348696 0 0 Z " fill="#CFACFA" transform="translate(42,449)"/>
</svg>
